<svg width="577" height="644" viewBox="0 0 577 644" fill="none" xmlns="http://www.w3.org/2000/svg">
<path d="M1.03231 1.56965C1.30075 1.40253 1.57524 1.24602 2.43972 1.04009C8.15741 2.44039 13.3052 1.00266 18.444 1.00446C102.267 1.03382 186.089 0.960256 269.912 0.991796C277.065 0.994497 284.271 1.13303 291.363 1.96981C316.716 4.96126 341.472 10.541 365.517 19.3149C410.401 35.6928 449.63 60.9614 483.068 94.8938C520.907 133.293 547.886 178.295 562.91 230.313C571.455 259.9 576.305 290.042 576.882 320.775C577.541 355.921 573.01 390.508 563.207 424.295C546.694 481.205 517.063 530.284 472.215 569.072C406.438 625.961 329.615 650.395 242.917 642.071C203.516 638.288 166.336 626.286 131.691 607.145C81.1039 579.195 42.4291 539.632 17.3465 487.28C7.99447 467.76 0.96864 447.499 0.964703 425.515C0.939404 284.2 0.999951 142.885 1.03231 1.56965ZM129.12 462.326C121.912 451.682 115.452 440.64 110.595 428.687C100.733 404.416 96.9599 379.059 96.9469 353.033C96.9245 308.036 96.9872 263.039 96.9822 218.043C96.9804 202.544 96.9413 187.045 96.7994 171.547C96.7472 165.846 95.0524 164.946 90.184 167.994C85.1401 171.152 82.0642 176.276 78.1426 180.56C76.0747 182.819 74.1165 184.95 74.1947 188.294C74.2903 192.38 72.0834 194.184 68.0985 194.63C63.5106 195.145 59.3989 196.681 56.937 201.159C54.8449 204.964 54.3074 209.007 54.3045 213.215C54.2704 262.545 54.0946 311.875 54.2667 361.204C54.3443 383.437 57.101 405.359 64.3164 426.546C64.9549 428.421 65.792 430.374 63.7697 431.903C61.8946 432.245 61.8117 429.49 59.6471 429.993C59.02 432.644 59.3031 435.359 59.9454 438.084C64.0834 455.642 71.8436 471.679 81.3795 486.79C102.351 520.022 130.363 545.902 164.798 564.799C194.767 581.245 226.992 590.21 260.972 592.563C285.205 594.24 309.359 592.254 332.823 586.015C415.986 563.903 472.223 512.438 500.335 430.765C500.778 429.479 500.553 427.661 502.766 427.185C504.105 428.88 503.245 430.574 502.753 432.272C501.5 436.603 500.457 440.986 500.745 445.531C500.862 447.383 501.426 449.342 503.499 449.896C505.678 450.477 506.254 448.367 507.064 447.065C508.998 443.958 510.851 440.787 512.523 437.533C527.315 408.736 533.84 377.786 535.529 345.766C537.134 315.31 533.567 285.324 525.809 255.791C512.166 203.851 485.568 159.538 447.164 122.303C413.271 89.4408 373.844 65.4463 328.897 50.7604C304.352 42.7408 279.467 37.1045 253.356 41.132C250.893 41.5118 248.466 41.6411 246.819 43.9453C247.639 45.3255 248.747 45.4972 249.915 45.6386C261.134 46.9964 272.325 48.4417 283.454 50.526C309.281 55.3631 334.337 62.7519 358 74.0863C420.459 104.003 467.607 149.589 497.02 212.679C518.561 258.885 527.902 307.378 522.179 358.3C520.979 368.979 518.953 379.707 515.87 389.981C513.788 396.92 510.41 403.509 509.036 410.764C508.699 412.544 508.194 414.637 505.719 414.936C505.479 414.384 505.203 414.065 505.244 413.792C505.563 411.656 505.86 409.511 506.318 407.402C513.474 374.398 514.593 340.978 511.383 307.558C508.06 272.95 498.084 239.99 482.04 209.071C461.165 168.843 432.096 135.921 394.58 110.174C347.765 78.0462 296.206 61.2866 239.569 60.4943C214.38 60.142 189.488 63.1632 164.94 69.3431C118.319 81.0796 78.1491 103.58 45.5615 139.172C22.9276 163.893 12.7326 192.782 16.3917 226.309C16.4978 227.281 16.3359 228.346 17.5076 228.865C17.8025 228.769 18.2121 228.76 18.3926 228.553C18.8228 228.057 19.1966 227.496 19.5031 226.913C34.473 198.474 56.5413 176.186 81.2594 156.335C121.503 124.014 167.577 105.812 218.961 101.956C252.532 99.4371 285.405 103.994 317.156 115.671C358.597 130.911 393.658 155.167 421.508 189.547C463.361 241.214 478.945 300.587 472.117 366.107C468.921 396.781 458.986 425.534 443.262 452.111C417.805 495.141 381.791 525.289 333.697 540.064C309.96 547.357 285.677 547.192 261.538 542.355C208.121 531.65 162.475 507.776 129.12 462.326ZM161.322 315.5C161.329 355.477 161.403 395.455 161.247 435.432C161.23 439.901 162.695 442.333 166.669 444.331C195.456 458.799 225.605 465.715 257.906 461.749C282.778 458.695 305.536 450.142 324.87 434.193C361.956 403.599 377.085 363.328 372.299 316.207C368.269 276.523 348.877 244.437 317.267 220.152C288.685 198.193 256.287 188.5 220.127 191.04C201.61 192.341 184.141 197.089 167.081 204.009C162.803 205.744 161.191 208.272 161.221 213.058C161.433 246.871 161.327 280.686 161.322 315.5ZM331.258 449.806C303.818 469.95 272.699 478.885 239.046 478.884C216.024 478.883 193.854 473.686 172.585 464.738C161.361 460.017 161.551 460.146 161.228 472.822C161.094 478.092 163.051 480.911 167.605 483.347C186.907 493.674 207.714 498.837 229.24 500.461C261.006 502.858 291.638 497.604 320.511 483.634C391.878 449.102 423.226 375.917 412.241 305.216C406.896 270.823 391.987 240.57 368.524 214.739C345.408 189.289 317.564 171.252 284.629 160.901C259.198 152.908 233.357 151.54 207.138 154.489C193.87 155.981 180.959 159.298 168.409 163.882C165.83 164.824 162.678 165.499 162.25 168.988C161.702 173.446 161.129 177.929 161.569 182.436C161.922 186.055 163.93 187.415 167.44 186.334C170.621 185.355 173.78 184.302 176.952 183.295C203.586 174.843 230.722 172.508 258.293 177.215C289.343 182.517 316.35 196.076 339.17 217.866C376.74 253.74 393.848 297.334 388.394 349.26C384.036 390.747 364.635 423.883 331.258 449.806ZM17.3492 58.4999C17.3405 85.9014 17.3128 113.303 18.1556 140.736C23.9963 133.763 28.1728 127.018 27.95 117.414C27.2548 87.4492 27.7403 57.4585 27.5505 27.4793C27.528 23.9298 29.047 23.1017 31.8916 23.0572C37.2199 22.9737 42.5493 22.9271 47.8783 22.9208C100.009 22.8595 152.14 22.7012 204.271 22.8087C225.91 22.8533 247.561 22.1497 269.196 23.5967C272.411 23.8118 275.755 25.4154 279.908 23.8173C274.285 19.5573 268.997 17.1768 262.467 17.1927C224.492 17.2853 186.516 17.1945 148.541 17.1622C107.068 17.1269 65.5948 17.0877 24.1218 17.0504C17.3426 17.0443 17.3449 17.0448 17.3466 24.0215C17.3494 35.181 17.3489 46.3404 17.3492 58.4999Z" fill="white"/>
</svg>